<!DOCTYPE svg PUBLIC "-//W3C//DTD SVG 20010904//EN" "http://www.w3.org/TR/2001/REC-SVG-20010904/DTD/svg10.dtd"[]><svg version="1.0" xmlns="http://www.w3.org/2000/svg" width="65" height="52" viewBox="0 0 1920.000000 1536.000000" preserveAspectRatio="xMidYMid meet"><g transform="translate(0.000000,1536.000000) scale(0.100000,-0.100000)" fill="#000000" stroke="none"><path d="M11725 13430 c-721 -65 -1453 -335 -1945 -719 -235 -183 -521 -497 -716 -787 l-79 -116 -50 6 c-354 42 -770 28 -1100 -39 -551 -111 -1008 -355 -1381 -736 -388 -397 -742 -1076 -904 -1731 -38 -152 -82 -398 -95 -523 -14 -138 -12 -133 -58 -139 -182 -23 -232 -31 -307 -53 -285 -82 -663 -274 -970 -493 -190 -136 -334 -259 -605 -515 -346 -329 -495 -445 -690 -542 -168 -84 -310 -118 -495 -117 -271 0 -489 74 -900 306 -341 192 -1024 574 -1047 587 -18 9 -22 9 -18 -1 2 -7 33 -123 69 -258 324 -1226 354 -1326 490 -1673 245 -626 554 -1189 906 -1655 158 -209 251 -317 433 -501 366 -369 624 -538 1047 -683 472 -162 1063 -205 1665 -123 55 8 103 11 106 7 4 -4 28 -54 53 -112 132 -293 295 -529 536 -771 209 -210 404 -359 659 -504 191 -108 486 -223 706 -275 328 -77 712 -90 1040 -34 544 92 1203 403 1725 814 63 50 126 99 140 109 l25 18 115 -99 c537 -461 1167 -698 1860 -698 288 0 580 40 925 125 315 78 536 158 805 291 289 144 515 302 734 514 306 297 522 640 638 1014 l32 103 241 -5 c337 -7 568 20 865 102 783 215 1533 749 1992 1421 195 284 302 513 403 864 133 459 211 858 246 1256 16 177 16 643 0 800 -55 559 -186 1019 -427 1505 -536 1077 -1398 1772 -2444 1969 -176 33 -472 60 -660 61 l-66 0 -44 113 c-24 61 -78 180 -121 264 -476 941 -1389 1518 -2593 1638 -184 19 -605 27 -741 15z m625 -235 c268 -22 434 -49 680 -110 975 -244 1683 -885 1990 -1803 l39 -115 263 -2 c390 -3 626 -40 969 -151 788 -255 1460 -868 1888 -1722 230 -458 362 -918 413 -1437 16 -165 16 -619 0 -795 -39 -412 -151 -944 -283 -1345 -131 -393 -386 -785 -731 -1121 -661 -645 -1532 -997 -2333 -943 -88 6 -200 19 -250 29 -62 13 -92 15 -97 7 -3 -5 -9 -31 -13 -56 -10 -70 -60 -245 -100 -351 -142 -374 -404 -722 -738 -981 -438 -341 -979 -552 -1707 -666 -54 -8 -202 -17 -341 -20 -260 -6 -381 4 -599 48 -478 97 -956 362 -1323 735 l-101 101 -90 -80 c-446 -394 -967 -698 -1491 -868 -104 -34 -256 -70 -400 -96 -156 -28 -577 -25 -740 5 -515 95 -944 308 -1334 663 -290 263 -501 576 -651 964 -23 61 -43 111 -44 112 -1 1 -35 -5 -76 -13 -438 -83 -937 -94 -1330 -28 -455 76 -833 239 -1130 488 -660 554 -1213 1404 -1615 2486 -69 186 -127 381 -235 790 -56 212 -105 398 -110 414 -8 24 -7 27 8 21 9 -3 175 -95 367 -202 442 -248 451 -253 563 -302 245 -108 442 -153 667 -153 220 0 399 43 605 147 223 113 408 259 780 620 423 410 859 700 1300 863 174 65 268 83 470 91 l165 6 12 165 c52 697 281 1358 676 1951 390 585 958 927 1737 1046 163 24 634 24 845 -1 83 -9 157 -19 165 -21 10 -3 32 24 67 84 166 281 461 631 703 833 444 372 1145 646 1820 713 173 17 462 17 670 0z" /><path d="M11815 12854 c-390 -41 -644 -97 -933 -205 -807 -302 -1354 -816 -1521 -1429 -79 -288 -116 -802 -78 -1077 51 -368 179 -630 418 -858 449 -427 1294 -618 1815 -409 300 120 501 402 569 798 17 102 20 340 4 436 -17 109 -45 209 -97 350 -57 155 -68 211 -52 272 31 117 139 188 201 132 12 -10 56 -89 98 -174 244 -493 328 -977 230 -1330 -95 -345 -385 -679 -724 -836 -438 -202 -978 -213 -1522 -30 -353 118 -641 284 -871 500 -262 247 -441 576 -540 991 -83 344 -52 788 79 1142 17 47 27 89 23 93 -33 32 -552 46 -749 21 -539 -69 -973 -273 -1300 -612 -349 -363 -660 -1003 -784 -1614 -55 -272 -65 -383 -66 -688 l0 -278 -25 5 c-60 13 -489 18 -589 7 -218 -24 -535 -161 -839 -363 -229 -152 -380 -278 -714 -597 -227 -217 -359 -327 -528 -440 -510 -342 -1030 -408 -1609 -206 -115 40 -297 120 -379 166 -28 16 -52 24 -52 19 0 -6 31 -104 69 -218 256 -768 649 -1498 1087 -2022 180 -216 460 -482 617 -589 256 -173 593 -283 1012 -332 230 -27 633 -11 933 38 l104 16 -7 31 c-44 204 -57 491 -31 692 80 624 426 1079 1006 1321 471 196 984 216 1443 56 274 -95 520 -274 657 -478 166 -247 267 -743 173 -847 -43 -48 -115 8 -158 124 -43 114 -131 284 -198 383 -76 111 -246 283 -347 350 -146 97 -311 166 -485 201 -103 21 -372 29 -491 15 -352 -43 -652 -176 -874 -388 -170 -161 -261 -313 -305 -507 -106 -471 -12 -1085 236 -1546 289 -535 832 -953 1429 -1099 525 -128 1023 -54 1614 240 410 204 761 461 1099 802 82 82 149 148 151 146 2 -2 18 -26 36 -54 62 -94 184 -239 280 -334 502 -499 1137 -732 1830 -671 439 39 928 178 1297 370 569 295 951 764 1073 1315 29 134 32 127 -52 154 -111 34 -361 162 -468 238 -121 87 -274 234 -361 346 -258 333 -379 717 -380 1207 0 267 23 475 87 760 34 153 55 212 124 355 75 155 160 273 280 388 232 223 500 339 820 354 251 12 481 -49 672 -176 66 -45 87 -66 107 -105 33 -64 40 -159 16 -205 -16 -31 -19 -33 -63 -28 -26 2 -93 20 -150 40 -160 57 -284 79 -442 79 -157 0 -250 -20 -370 -78 -59 -29 -95 -57 -171 -133 -226 -227 -368 -536 -425 -927 -24 -163 -24 -477 0 -634 69 -458 243 -750 581 -973 186 -122 478 -238 740 -293 99 -21 416 -29 556 -15 499 52 1021 276 1470 632 124 98 378 350 473 469 236 296 357 544 475 975 193 702 248 1351 166 1940 -38 264 -128 595 -236 855 -315 768 -855 1373 -1499 1679 -232 110 -485 187 -750 228 -158 25 -683 25 -840 1 -57 -9 -106 -16 -107 -15 -1 1 -13 58 -27 127 -71 352 -212 668 -424 954 -89 119 -274 312 -386 402 -401 321 -890 508 -1516 579 -132 15 -536 27 -615 19z" /></g></svg>