<?xml version="1.0" encoding="UTF-8"?>
<svg xmlns="http://www.w3.org/2000/svg" xmlns:xlink="http://www.w3.org/1999/xlink" width="2560px" height="2048px" viewBox="0 0 2560 2048" version="1.1">
<g id="surface1">
<path style=" stroke:none;fill-rule:nonzero;fill:rgb(0%,0%,0%);fill-opacity:1;" d="M 1563.332031 257.332031 C 1467.199219 266 1369.601562 302 1304 353.199219 C 1272.667969 377.601562 1234.535156 419.464844 1208.535156 458.132812 L 1198 473.601562 L 1191.332031 472.800781 C 1144.132812 467.199219 1088.667969 469.066406 1044.667969 478 C 971.199219 492.800781 910.265625 525.332031 860.535156 576.132812 C 808.800781 629.066406 761.601562 719.601562 740 806.933594 C 734.933594 827.199219 729.066406 860 727.332031 876.667969 C 725.464844 895.066406 725.734375 894.398438 719.601562 895.199219 C 695.332031 898.265625 688.667969 899.332031 678.667969 902.265625 C 640.667969 913.199219 590.265625 938.800781 549.332031 968 C 524 986.132812 504.800781 1002.535156 468.667969 1036.667969 C 422.535156 1080.535156 402.667969 1096 376.667969 1108.933594 C 354.265625 1120.132812 335.332031 1124.667969 310.667969 1124.535156 C 274.535156 1124.535156 245.464844 1114.667969 190.667969 1083.734375 C 145.199219 1058.132812 54.132812 1007.199219 51.066406 1005.464844 C 48.667969 1004.265625 48.132812 1004.265625 48.667969 1005.601562 C 48.933594 1006.535156 53.066406 1022 57.867188 1040 C 101.066406 1203.464844 105.066406 1216.800781 123.199219 1263.066406 C 155.867188 1346.535156 197.066406 1421.601562 244 1483.734375 C 265.066406 1511.601562 277.464844 1526 301.734375 1550.535156 C 350.535156 1599.734375 384.933594 1622.265625 441.332031 1641.601562 C 504.265625 1663.199219 583.066406 1668.933594 663.332031 1658 C 670.667969 1656.933594 677.066406 1656.535156 677.464844 1657.066406 C 678 1657.601562 681.199219 1664.265625 684.535156 1672 C 702.132812 1711.066406 723.867188 1742.535156 756 1774.800781 C 783.867188 1802.800781 809.867188 1822.667969 843.867188 1842 C 869.332031 1856.398438 908.667969 1871.734375 938 1878.667969 C 981.734375 1888.933594 1032.933594 1890.667969 1076.667969 1883.199219 C 1149.199219 1870.933594 1237.066406 1829.464844 1306.667969 1774.667969 C 1315.066406 1768 1323.464844 1761.464844 1325.332031 1760.132812 L 1328.667969 1757.734375 L 1344 1770.933594 C 1415.601562 1832.398438 1499.601562 1864 1592 1864 C 1630.398438 1864 1669.332031 1858.667969 1715.332031 1847.332031 C 1757.332031 1836.933594 1786.800781 1826.265625 1822.667969 1808.535156 C 1861.199219 1789.332031 1891.332031 1768.265625 1920.535156 1740 C 1961.332031 1700.398438 1990.132812 1654.667969 2005.601562 1604.800781 L 2009.867188 1591.066406 L 2042 1591.734375 C 2086.933594 1592.667969 2117.734375 1589.066406 2157.332031 1578.132812 C 2261.734375 1549.464844 2361.734375 1478.265625 2422.933594 1388.667969 C 2448.933594 1350.800781 2463.199219 1320.265625 2476.667969 1273.464844 C 2494.398438 1212.265625 2504.800781 1159.066406 2509.464844 1106 C 2511.601562 1082.398438 2511.601562 1020.265625 2509.464844 999.332031 C 2502.132812 924.800781 2484.667969 863.464844 2452.535156 798.667969 C 2381.066406 655.066406 2266.132812 562.398438 2126.667969 536.132812 C 2103.199219 531.734375 2063.734375 528.132812 2038.667969 528 L 2029.867188 528 L 2024 512.933594 C 2020.800781 504.800781 2013.601562 488.933594 2007.867188 477.734375 C 1944.398438 352.265625 1822.667969 275.332031 1662.132812 259.332031 C 1637.601562 256.800781 1581.464844 255.734375 1563.332031 257.332031 Z M 1646.667969 288.667969 C 1682.398438 291.601562 1704.535156 295.199219 1737.332031 303.332031 C 1867.332031 335.867188 1961.734375 421.332031 2002.667969 543.734375 L 2007.867188 559.066406 L 2042.933594 559.332031 C 2094.933594 559.734375 2126.398438 564.667969 2172.132812 579.464844 C 2277.199219 613.464844 2366.800781 695.199219 2423.867188 809.066406 C 2454.535156 870.132812 2472.132812 931.464844 2478.933594 1000.667969 C 2481.066406 1022.667969 2481.066406 1083.199219 2478.933594 1106.667969 C 2473.734375 1161.601562 2458.800781 1232.535156 2441.199219 1286 C 2423.734375 1338.398438 2389.734375 1390.667969 2343.734375 1435.464844 C 2255.601562 1521.464844 2139.464844 1568.398438 2032.667969 1561.199219 C 2020.933594 1560.398438 2006 1558.667969 1999.332031 1557.332031 C 1991.066406 1555.601562 1987.066406 1555.332031 1986.398438 1556.398438 C 1986 1557.066406 1985.199219 1560.535156 1984.667969 1563.867188 C 1983.332031 1573.199219 1976.667969 1596.535156 1971.332031 1610.667969 C 1952.398438 1660.535156 1917.464844 1706.933594 1872.933594 1741.464844 C 1814.535156 1786.933594 1742.398438 1815.066406 1645.332031 1830.265625 C 1638.132812 1831.332031 1618.398438 1832.535156 1599.867188 1832.933594 C 1565.199219 1833.734375 1549.066406 1832.398438 1520 1826.535156 C 1456.265625 1813.601562 1392.535156 1778.265625 1343.601562 1728.535156 L 1330.132812 1715.066406 L 1318.132812 1725.734375 C 1258.667969 1778.265625 1189.199219 1818.800781 1119.332031 1841.464844 C 1105.464844 1846 1085.199219 1850.800781 1066 1854.265625 C 1045.199219 1858 989.066406 1857.601562 967.332031 1853.601562 C 898.667969 1840.933594 841.464844 1812.535156 789.464844 1765.199219 C 750.800781 1730.132812 722.667969 1688.398438 702.667969 1636.667969 C 699.601562 1628.535156 696.933594 1621.867188 696.800781 1621.734375 C 696.667969 1621.601562 692.132812 1622.398438 686.667969 1623.464844 C 628.265625 1634.535156 561.734375 1636 509.332031 1627.199219 C 448.667969 1617.066406 398.265625 1595.332031 358.667969 1562.132812 C 270.667969 1488.265625 196.933594 1374.933594 143.332031 1230.667969 C 134.132812 1205.867188 126.398438 1179.867188 112 1125.332031 C 104.535156 1097.066406 98 1072.265625 97.332031 1070.132812 C 96.265625 1066.933594 96.398438 1066.535156 98.398438 1067.332031 C 99.601562 1067.734375 121.734375 1080 147.332031 1094.265625 C 206.265625 1127.332031 207.464844 1128 222.398438 1134.535156 C 255.066406 1148.933594 281.332031 1154.933594 311.332031 1154.933594 C 340.667969 1154.933594 364.535156 1149.199219 392 1135.332031 C 421.734375 1120.265625 446.398438 1100.800781 496 1052.667969 C 552.398438 998 610.535156 959.332031 669.332031 937.601562 C 692.535156 928.933594 705.066406 926.535156 732 925.464844 L 754 924.667969 L 755.601562 902.667969 C 762.535156 809.734375 793.066406 721.601562 845.734375 642.535156 C 897.734375 564.535156 973.464844 518.933594 1077.332031 503.066406 C 1099.066406 499.867188 1161.867188 499.867188 1190 503.199219 C 1201.066406 504.398438 1210.933594 505.734375 1212 506 C 1213.332031 506.398438 1216.265625 502.800781 1220.933594 494.800781 C 1243.066406 457.332031 1282.398438 410.667969 1314.667969 383.734375 C 1373.867188 334.132812 1467.332031 297.601562 1557.332031 288.667969 C 1580.398438 286.398438 1618.933594 286.398438 1646.667969 288.667969 Z M 1646.667969 288.667969 "/>
<path style=" stroke:none;fill-rule:nonzero;fill:rgb(0%,0%,0%);fill-opacity:1;" d="M 1575.332031 334.132812 C 1523.332031 339.601562 1489.464844 347.066406 1450.933594 361.464844 C 1343.332031 401.734375 1270.398438 470.265625 1248.132812 552 C 1237.601562 590.398438 1232.667969 658.933594 1237.734375 695.601562 C 1244.535156 744.667969 1261.601562 779.601562 1293.464844 810 C 1353.332031 866.933594 1466 892.398438 1535.464844 864.535156 C 1575.464844 848.535156 1602.265625 810.933594 1611.332031 758.132812 C 1613.601562 744.535156 1614 712.800781 1611.867188 700 C 1609.601562 685.464844 1605.867188 672.132812 1598.933594 653.332031 C 1591.332031 632.667969 1589.867188 625.199219 1592 617.066406 C 1596.132812 601.464844 1610.535156 592 1618.800781 599.464844 C 1620.398438 600.800781 1626.265625 611.332031 1631.867188 622.667969 C 1664.398438 688.398438 1675.601562 752.933594 1662.535156 800 C 1649.867188 846 1611.199219 890.535156 1566 911.464844 C 1507.601562 938.398438 1435.601562 939.867188 1363.066406 915.464844 C 1316 899.734375 1277.601562 877.601562 1246.933594 848.800781 C 1212 815.867188 1188.132812 772 1174.933594 716.667969 C 1163.867188 670.800781 1168 611.601562 1185.464844 564.398438 C 1187.734375 558.132812 1189.066406 552.535156 1188.535156 552 C 1184.132812 547.734375 1114.933594 545.867188 1088.667969 549.199219 C 1016.800781 558.398438 958.933594 585.601562 915.332031 630.800781 C 868.800781 679.199219 827.332031 764.535156 810.800781 846 C 803.464844 882.265625 802.132812 897.066406 802 937.734375 L 802 974.800781 L 798.667969 974.132812 C 790.667969 972.398438 733.464844 971.734375 720.132812 973.199219 C 691.066406 976.398438 648.800781 994.667969 608.265625 1021.601562 C 577.734375 1041.867188 557.601562 1058.667969 513.066406 1101.199219 C 482.800781 1130.132812 465.199219 1144.800781 442.667969 1159.867188 C 374.667969 1205.464844 305.332031 1214.265625 228.132812 1187.332031 C 212.800781 1182 188.535156 1171.332031 177.601562 1165.199219 C 173.867188 1163.066406 170.667969 1162 170.667969 1162.667969 C 170.667969 1163.464844 174.800781 1176.535156 179.867188 1191.734375 C 214 1294.132812 266.398438 1391.464844 324.800781 1461.332031 C 348.800781 1490.132812 386.132812 1525.601562 407.066406 1539.867188 C 441.199219 1562.933594 486.132812 1577.601562 542 1584.132812 C 572.667969 1587.734375 626.398438 1585.601562 666.398438 1579.066406 L 680.265625 1576.933594 L 679.332031 1572.800781 C 673.464844 1545.601562 671.734375 1507.332031 675.199219 1480.535156 C 685.867188 1397.332031 732 1336.667969 809.332031 1304.398438 C 872.132812 1278.265625 940.535156 1275.601562 1001.734375 1296.933594 C 1038.265625 1309.601562 1071.066406 1333.464844 1089.332031 1360.667969 C 1111.464844 1393.601562 1124.933594 1459.734375 1112.398438 1473.601562 C 1106.667969 1480 1097.066406 1472.535156 1091.332031 1457.066406 C 1085.601562 1441.867188 1073.867188 1419.199219 1064.933594 1406 C 1054.800781 1391.199219 1032.132812 1368.265625 1018.667969 1359.332031 C 999.199219 1346.398438 977.199219 1337.199219 954 1332.535156 C 940.265625 1329.734375 904.398438 1328.667969 888.535156 1330.535156 C 841.601562 1336.265625 801.601562 1354 772 1382.265625 C 749.332031 1403.734375 737.199219 1424 731.332031 1449.867188 C 717.199219 1512.667969 729.734375 1594.535156 762.800781 1656 C 801.332031 1727.332031 873.734375 1783.066406 953.332031 1802.535156 C 1023.332031 1819.601562 1089.734375 1809.734375 1168.535156 1770.535156 C 1223.199219 1743.332031 1270 1709.066406 1315.066406 1663.601562 C 1326 1652.667969 1334.933594 1643.867188 1335.199219 1644.132812 C 1335.464844 1644.398438 1337.601562 1647.601562 1340 1651.332031 C 1348.265625 1663.867188 1364.535156 1683.199219 1377.332031 1695.867188 C 1444.265625 1762.398438 1528.933594 1793.464844 1621.332031 1785.332031 C 1679.867188 1780.132812 1745.066406 1761.601562 1794.265625 1736 C 1870.132812 1696.667969 1921.066406 1634.132812 1937.332031 1560.667969 C 1941.199219 1542.800781 1941.601562 1543.734375 1930.398438 1540.132812 C 1915.601562 1535.601562 1882.265625 1518.535156 1868 1508.398438 C 1851.867188 1496.800781 1831.464844 1477.199219 1819.867188 1462.265625 C 1785.464844 1417.867188 1769.332031 1366.667969 1769.199219 1301.332031 C 1769.199219 1265.734375 1772.265625 1238 1780.800781 1200 C 1785.332031 1179.601562 1788.132812 1171.734375 1797.332031 1152.667969 C 1807.332031 1132 1818.667969 1116.265625 1834.667969 1100.933594 C 1865.601562 1071.199219 1901.332031 1055.734375 1944 1053.734375 C 1977.464844 1052.132812 2008.132812 1060.265625 2033.601562 1077.199219 C 2042.398438 1083.199219 2045.199219 1086 2047.867188 1091.199219 C 2052.265625 1099.734375 2053.199219 1112.398438 2050 1118.535156 C 2047.867188 1122.667969 2047.464844 1122.933594 2041.601562 1122.265625 C 2038.132812 1122 2029.199219 1119.601562 2021.601562 1116.933594 C 2000.265625 1109.332031 1983.734375 1106.398438 1962.667969 1106.398438 C 1941.734375 1106.398438 1929.332031 1109.066406 1913.332031 1116.800781 C 1905.464844 1120.667969 1900.667969 1124.398438 1890.535156 1134.535156 C 1860.398438 1164.800781 1841.464844 1206 1833.867188 1258.132812 C 1830.667969 1279.867188 1830.667969 1321.734375 1833.867188 1342.667969 C 1843.066406 1403.734375 1866.265625 1442.667969 1911.332031 1472.398438 C 1936.132812 1488.667969 1975.066406 1504.132812 2010 1511.464844 C 2023.199219 1514.265625 2065.464844 1515.332031 2084.132812 1513.464844 C 2150.667969 1506.535156 2220.265625 1476.667969 2280.132812 1429.199219 C 2296.667969 1416.132812 2330.535156 1382.535156 2343.199219 1366.667969 C 2374.667969 1327.199219 2390.800781 1294.132812 2406.535156 1236.667969 C 2432.265625 1143.066406 2439.601562 1056.535156 2428.667969 978 C 2423.601562 942.800781 2411.601562 898.667969 2397.199219 864 C 2355.199219 761.601562 2283.199219 680.933594 2197.332031 640.132812 C 2166.398438 625.464844 2132.667969 615.199219 2097.332031 609.734375 C 2076.265625 606.398438 2006.265625 606.398438 1985.332031 609.601562 C 1977.734375 610.800781 1971.199219 611.734375 1971.066406 611.601562 C 1970.933594 611.464844 1969.332031 603.867188 1967.464844 594.667969 C 1958 547.734375 1939.199219 505.601562 1910.933594 467.464844 C 1899.066406 451.601562 1874.398438 425.867188 1859.464844 413.867188 C 1806 371.066406 1740.800781 346.132812 1657.332031 336.667969 C 1639.734375 334.667969 1585.867188 333.066406 1575.332031 334.132812 Z M 1575.332031 334.132812 "/>
</g>
</svg>
